<svg width="24" height="24" viewBox="0 0 24 24" fill="none" xmlns="http://www.w3.org/2000/svg">
<path d="M21.5905 18.6165L19 12.4V11H21.5V8H19V4.5H17V0H3.793L0 3.793V19H11.793L13.293 20.5H9V24H24V20.5H19.707L21.5905 18.6165ZM20.5 9V10H12.5V9H20.5ZM18 8H15V5.5H18V8ZM3.5 1.707V3.5H1.707L3.5 1.707ZM1 4.5H4.5V1H16V4.5H14V8H11.5V11H14V12.4L11.6665 18H1V4.5ZM12.5905 18.3835L15 12.6V11H18V12.6L20.4095 18.383L18.293 20.5H14.707L12.5905 18.3835ZM23 21.5V23H10V21.5H23Z" fill="white"/>
<path d="M4.5 6.5H10V7.5H4.5V6.5ZM4.5 9H10V10H4.5V9ZM4.5 11.5H10V12.5H4.5V11.5ZM4.5 14H10V15H4.5V14Z" fill="white"/>
</svg>
