<svg
class="w-6 h-auto p-1"
 width="1536" height="1536" viewBox="0 0 1536 1536" fill="none" xmlns="http://www.w3.org/2000/svg">
<path d="M1284 606C1284 587.333 1278 572 1266 560L1175 470C1162.33 457.333 1147.33 451 1130 451C1112.67 451 1097.67 457.333 1085 470L677 877L451 651C438.333 638.333 423.333 632 406 632C388.667 632 373.667 638.333 361 651L270 741C258 753 252 768.333 252 787C252 805 258 820 270 832L632 1194C644.667 1206.67 659.667 1213 677 1213C695 1213 710.333 1206.67 723 1194L1266 651C1278 639 1284 624 1284 606ZM1536 768C1536 907.333 1501.67 1035.83 1433 1153.5C1364.33 1271.17 1271.17 1364.33 1153.5 1433C1035.83 1501.67 907.333 1536 768 1536C628.667 1536 500.167 1501.67 382.5 1433C264.833 1364.33 171.667 1271.17 103 1153.5C34.3333 1035.83 0 907.333 0 768C0 628.667 34.3333 500.167 103 382.5C171.667 264.833 264.833 171.667 382.5 103C500.167 34.3333 628.667 0 768 0C907.333 0 1035.83 34.3333 1153.5 103C1271.17 171.667 1364.33 264.833 1433 382.5C1501.67 500.167 1536 628.667 1536 768Z" fill="#04CC00"/>
</svg>
