<svg
class="w-6 h-auto p-1"
 width="1536" height="1536" viewBox="0 0 1536 1536" fill="none" xmlns="http://www.w3.org/2000/svg">
<g clip-path="url(#clip0_880_531)">
<path d="M768 0C616.104 0 467.619 45.0424 341.322 129.431C215.025 213.82 116.589 333.765 58.4609 474.099C0.332764 614.433 -14.8762 768.852 14.7572 917.829C44.3907 1066.81 117.536 1203.65 224.942 1311.06C332.349 1418.46 469.194 1491.61 618.171 1521.24C767.148 1550.88 921.568 1535.67 1061.9 1477.54C1202.23 1419.41 1322.18 1320.97 1406.57 1194.68C1490.96 1068.38 1536 919.896 1536 768C1535.78 564.381 1454.8 369.165 1310.82 225.185C1166.83 81.205 971.619 0.220229 768 0ZM1039.49 949.056C1051.49 961.058 1058.23 977.334 1058.23 994.304C1058.23 1011.27 1051.49 1027.55 1039.49 1039.55C1027.28 1051.16 1011.08 1057.63 994.24 1057.63C977.397 1057.63 961.198 1051.16 948.992 1039.55L768 858.496L587.008 1039.55C574.925 1051.4 558.68 1058.03 541.76 1058.03C524.841 1058.03 508.595 1051.4 496.512 1039.55C484.514 1027.55 477.774 1011.27 477.774 994.304C477.774 977.334 484.514 961.058 496.512 949.056L677.504 768L496.512 586.944C490.4 581.04 485.524 573.978 482.17 566.17C478.816 558.362 477.05 549.964 476.976 541.466C476.902 532.968 478.522 524.54 481.74 516.675C484.958 508.81 489.71 501.664 495.719 495.655C501.728 489.646 508.874 484.893 516.739 481.675C524.605 478.457 533.032 476.838 541.53 476.912C550.028 476.986 558.426 478.751 566.234 482.105C574.043 485.46 581.105 490.335 587.008 496.448L768 677.504L948.992 496.448C954.896 490.335 961.958 485.46 969.766 482.105C977.575 478.751 985.973 476.986 994.471 476.912C1002.97 476.838 1011.4 478.457 1019.26 481.675C1027.13 484.893 1034.27 489.646 1040.28 495.655C1046.29 501.664 1051.04 508.81 1054.26 516.675C1057.48 524.54 1059.1 532.968 1059.02 541.466C1058.95 549.964 1057.18 558.362 1053.83 566.17C1050.48 573.978 1045.6 581.04 1039.49 586.944L858.496 768L1039.49 949.056Z" fill="#C70000"/>
</g>
<defs>
<clipPath id="clip0_880_531">
<rect width="1536" height="1536" fill="white"/>
</clipPath>
</defs>
</svg>
