<svg width="183" height="150" viewBox="0 0 183 150" fill="none" xmlns="http://www.w3.org/2000/svg">
<path d="M26 15.5L136 0L145.5 13H137.5L133 7.5L48.5 22.5C67 59.5 62.3 45.5 81.5 95.5L72.5 106C73 104 40 24 26 15.5Z" fill="#FDFDFE"/>
<path d="M20 56.5C35 67 57 104.5 57 104.5C30.2 74.5 10.5 63 4 61L20 56.5Z" fill="#FDFDFE"/>
<path d="M27.5 33C55.5 63.8 67.1667 98.5 69.5 112L65.5 109.5C38.7 60.3 14.6667 41.3333 6 38L27.5 33Z" fill="#9BBEE4"/>
<path d="M70.5 116.5C43.3 98.9 12.1667 86.1667 0 82C23.6 99.6 59.5 134.333 74.5 149.5C120.9 74.3 166.167 25.8333 183 11C127 43 86.5 94.3333 70.5 116.5Z" fill="#9BBEE4"/>
</svg>
