<svg width="17" height="16" viewBox="0 0 17 16" fill="none" xmlns="http://www.w3.org/2000/svg">
<path d="M1 15L5.54342 13.9473L13.9162 6.07569L10.4925 2.85687L2.12 10.7285L1 15Z" stroke="black" stroke-miterlimit="10" stroke-linecap="round" stroke-linejoin="round"/>
<path d="M13.9803 1.37146L15.4959 2.79636C15.6212 2.91414 15.7206 3.05397 15.7885 3.20787C15.8563 3.36177 15.8912 3.52673 15.8912 3.69331C15.8912 3.8599 15.8563 4.02486 15.7885 4.17876C15.7206 4.33266 15.6212 4.47249 15.4959 4.59027L13.9159 6.0757L10.4922 2.85688L12.0725 1.37146C12.3255 1.13362 12.6686 1 13.0264 1C13.3842 1 13.7273 1.13362 13.9803 1.37146Z" stroke="black" stroke-miterlimit="10" stroke-linecap="round" stroke-linejoin="round"/>
<path d="M2.12012 10.7285L5.54354 13.9473" stroke="black" stroke-miterlimit="10" stroke-linecap="round" stroke-linejoin="round"/>
<path d="M1.03613 15H15.9998" stroke="black" stroke-miterlimit="10" stroke-linecap="round" stroke-linejoin="round"/>
</svg>
