<svg width="21" height="23" viewBox="0 0 21 23" fill="none" xmlns="http://www.w3.org/2000/svg">
<g clip-path="url(#clip0_379_465)">
<path d="M19.6875 3.95312H1.3125C1.22548 3.95312 1.14202 3.99099 1.08048 4.05838C1.01895 4.12578 0.984375 4.21719 0.984375 4.3125V18.6875C0.984375 18.7828 1.01895 18.8742 1.08048 18.9416C1.14202 19.009 1.22548 19.0469 1.3125 19.0469H9.51562V19.798H3.9375C3.85048 19.798 3.76702 19.8358 3.70548 19.9032C3.64395 19.9706 3.60938 20.062 3.60938 20.1573V21.5625C3.60938 21.6578 3.64395 21.7492 3.70548 21.8166C3.76702 21.884 3.85048 21.9219 3.9375 21.9219H17.0625C17.1495 21.9219 17.233 21.884 17.2945 21.8166C17.3561 21.7492 17.3906 21.6578 17.3906 21.5625V20.1573C17.3906 20.062 17.3561 19.9706 17.2945 19.9032C17.233 19.8358 17.1495 19.798 17.0625 19.798H11.4844V19.0469H19.6875C19.7745 19.0469 19.858 19.009 19.9195 18.9416C19.9811 18.8742 20.0156 18.7828 20.0156 18.6875V4.3125C20.0156 4.21719 19.9811 4.12578 19.9195 4.05838C19.858 3.99099 19.7745 3.95312 19.6875 3.95312ZM1.64062 4.67188H19.3594V16.3731H1.64062V4.67188ZM10.8281 19.798H10.1719V19.0469H10.8281V19.798Z" fill="black"/>
<path d="M14.4374 12.6068C14.1967 12.6071 13.9625 12.6921 13.7693 12.8494C13.5761 13.0066 13.4341 13.2277 13.3645 13.4801H9.18743C9.11402 13.2151 8.96149 12.9848 8.75431 12.826L8.96759 12.1073H13.7156C13.7896 12.1101 13.8624 12.0853 13.922 12.037C13.9816 11.9887 14.0245 11.9198 14.0437 11.8413L14.9624 8.20447C14.9764 8.14996 14.9785 8.09259 14.9684 8.03705C14.9583 7.9815 14.9363 7.92936 14.9044 7.88487C14.8724 7.84037 14.8312 7.80479 14.7843 7.78102C14.7374 7.75724 14.686 7.74595 14.6343 7.74807H9.05618C8.96916 7.74807 8.8857 7.78593 8.82416 7.85333C8.76263 7.92072 8.72806 8.01213 8.72806 8.10744C8.72806 8.20275 8.76263 8.29416 8.82416 8.36156C8.8857 8.42896 8.96916 8.46682 9.05618 8.46682H14.2012L13.4531 11.3778H8.99056L7.77977 6.57291C7.76055 6.49451 7.71765 6.42555 7.65807 6.37726C7.59848 6.32897 7.52573 6.30419 7.45165 6.30697H5.78149C5.69447 6.30697 5.61101 6.34484 5.54947 6.41223C5.48794 6.47963 5.45337 6.57104 5.45337 6.66635C5.45337 6.76166 5.48794 6.85307 5.54947 6.92047C5.61101 6.98786 5.69447 7.02572 5.78149 7.02572H7.21868L8.39993 11.7263L8.14071 12.6068C7.93015 12.5998 7.72201 12.6575 7.53983 12.7734C7.35765 12.8892 7.20871 13.0586 7.10985 13.2624C7.01099 13.4661 6.96616 13.6961 6.98043 13.9263C6.99471 14.1565 7.06751 14.3777 7.19061 14.5649C7.31371 14.7521 7.48219 14.8979 7.677 14.9857C7.8718 15.0735 8.08516 15.0999 8.29293 15.0618C8.5007 15.0237 8.69459 14.9227 8.85267 14.7702C9.01075 14.6177 9.12671 14.4198 9.18743 14.1988H13.3481C13.4087 14.4166 13.5232 14.6118 13.6789 14.7626C13.8346 14.9135 14.0254 15.0142 14.2302 15.0535C14.435 15.0929 14.6457 15.0693 14.839 14.9855C15.0322 14.9017 15.2006 14.7608 15.3252 14.5786C15.4499 14.3964 15.5261 14.18 15.5453 13.9533C15.5645 13.7265 15.526 13.4984 15.434 13.2942C15.3421 13.09 15.2003 12.9177 15.0244 12.7964C14.8485 12.675 14.6453 12.6094 14.4374 12.6068Z" fill="black"/>
</g>
<defs>
<clipPath id="clip0_379_465">
<rect width="21" height="23" fill="white"/>
</clipPath>
</defs>
</svg>
