<svg width="22" height="25" viewBox="0 0 22 25" fill="none" xmlns="http://www.w3.org/2000/svg">
<path d="M4.84167 12.5668C4.44934 12.9085 4.18167 13.2012 4.03959 13.4533C3.8975 13.7033 3.81134 13.972 3.78384 14.2533H6.23959V13.4741H4.96175C5.036 13.3897 5.10109 13.3168 5.15609 13.2647C5.21292 13.2127 5.32292 13.1168 5.487 12.9835C5.76475 12.7564 5.95542 12.546 6.06084 12.3543C6.16717 12.1606 6.21942 11.9637 6.21942 11.7522C6.22192 11.5626 6.17365 11.3766 6.081 11.2189C5.99005 11.0594 5.85823 10.9354 5.70334 10.8637C5.54384 10.7845 5.31925 10.7481 5.03142 10.7481C4.75642 10.7481 4.53917 10.7877 4.38425 10.8668C4.23505 10.9404 4.10862 11.063 4.02125 11.2189C3.93509 11.3679 3.8755 11.5793 3.84342 11.8481L4.66292 11.9272C4.68584 11.7314 4.73075 11.597 4.79767 11.5168C4.83122 11.4791 4.87125 11.4497 4.91525 11.4303C4.95924 11.411 5.00628 11.4021 5.05342 11.4043C5.15425 11.4043 5.23675 11.4408 5.30275 11.5168C5.3349 11.5512 5.36032 11.593 5.37737 11.6393C5.39443 11.6856 5.40273 11.7354 5.40175 11.7856C5.3961 11.8975 5.36168 12.0051 5.30275 12.095C5.23492 12.2012 5.08184 12.3595 4.84167 12.5668ZM4.89209 19.2189C4.79664 19.2223 4.70384 19.183 4.63359 19.1095C4.56575 19.0366 4.51625 18.9064 4.48509 18.7158L3.6665 18.8387C3.72059 19.0512 3.79667 19.2262 3.89659 19.3658C3.9965 19.5043 4.12392 19.6106 4.27884 19.6845C4.43284 19.7564 4.64459 19.7918 4.91317 19.7918C5.18817 19.7918 5.40909 19.7429 5.57775 19.646C5.74123 19.5532 5.87658 19.407 5.96642 19.2262C6.05625 19.0439 6.10025 18.8575 6.10025 18.6595C6.10361 18.5176 6.0759 18.3769 6.01959 18.2502C5.96544 18.1387 5.8868 18.045 5.79134 17.9783C5.70955 17.9252 5.62116 17.8866 5.52917 17.8637C5.65545 17.7909 5.76404 17.6839 5.84542 17.5522C5.91467 17.4342 5.95079 17.2951 5.949 17.1533C5.9507 17.0343 5.92836 16.9165 5.88371 16.8089C5.83905 16.7012 5.77327 16.6067 5.69142 16.5325C5.52 16.3668 5.24225 16.2845 4.85817 16.2845C4.52359 16.2845 4.26417 16.3595 4.08175 16.5127C3.89842 16.6616 3.77559 16.8804 3.71142 17.1647L4.48509 17.322C4.50617 17.1533 4.5465 17.0366 4.607 16.97C4.6675 16.9033 4.74542 16.8679 4.84259 16.8679C4.88299 16.8658 4.92337 16.8729 4.96131 16.8888C4.99926 16.9047 5.03401 16.9291 5.0635 16.9606C5.11759 17.0231 5.14325 17.1054 5.14325 17.2085C5.14325 17.3168 5.10842 17.4095 5.036 17.4897C4.96359 17.57 4.87375 17.6064 4.76742 17.6064C4.7318 17.6052 4.69628 17.6014 4.66109 17.595L4.61984 18.271C4.70553 18.2385 4.79459 18.2189 4.88475 18.2127C5.00575 18.2127 5.102 18.2554 5.17167 18.3439C5.24225 18.4293 5.27709 18.5512 5.27709 18.7106C5.27709 18.8627 5.24042 18.9877 5.168 19.0793C5.1336 19.1238 5.09113 19.1594 5.0435 19.1835C4.99587 19.2076 4.94422 19.2197 4.89209 19.2189ZM5.76109 8.71579V5.2085H5.08367C5.00086 5.41864 4.87741 5.60486 4.7225 5.75329C4.5685 5.9012 4.35217 6.0262 4.0735 6.1335V6.91891C4.38687 6.82069 4.67919 6.65052 4.93242 6.41891V8.71683H5.76109V8.71579ZM8.24984 6.25016H18.3332V8.3335H8.24984V6.25016ZM8.24984 11.4585H18.3332V13.5418H8.24984V11.4585ZM8.24984 16.6668H18.3332V18.7502H8.24984V16.6668Z" fill="white"/>
</svg>
