<svg width="21" height="23" viewBox="0 0 21 23" fill="none" xmlns="http://www.w3.org/2000/svg">
<g clip-path="url(#clip0_504_529)">
<path d="M19.6875 3.95312H1.3125C1.22548 3.95312 1.14202 3.99099 1.08048 4.05838C1.01895 4.12578 0.984375 4.21719 0.984375 4.3125V18.6875C0.984375 18.7828 1.01895 18.8742 1.08048 18.9416C1.14202 19.009 1.22548 19.0469 1.3125 19.0469H9.51562V19.798H3.9375C3.85048 19.798 3.76702 19.8358 3.70548 19.9032C3.64395 19.9706 3.60938 20.062 3.60938 20.1573V21.5625C3.60938 21.6578 3.64395 21.7492 3.70548 21.8166C3.76702 21.884 3.85048 21.9219 3.9375 21.9219H17.0625C17.1495 21.9219 17.233 21.884 17.2945 21.8166C17.3561 21.7492 17.3906 21.6578 17.3906 21.5625V20.1573C17.3906 20.062 17.3561 19.9706 17.2945 19.9032C17.233 19.8358 17.1495 19.798 17.0625 19.798H11.4844V19.0469H19.6875C19.7745 19.0469 19.858 19.009 19.9195 18.9416C19.9811 18.8742 20.0156 18.7828 20.0156 18.6875V4.3125C20.0156 4.21719 19.9811 4.12578 19.9195 4.05838C19.858 3.99099 19.7745 3.95312 19.6875 3.95312ZM1.64062 4.67188H19.3594V16.3731H1.64062V4.67188ZM10.8281 19.798H10.1719V19.0469H10.8281V19.798Z" fill="white"/>
<path d="M14.4377 12.6067C14.197 12.607 13.9627 12.692 13.7695 12.8493C13.5763 13.0065 13.4344 13.2276 13.3647 13.48H9.18768C9.11426 13.215 8.96174 12.9846 8.75455 12.8259L8.96783 12.1072H13.7158C13.7899 12.1099 13.8626 12.0852 13.9222 12.0369C13.9818 11.9886 14.0247 11.9196 14.0439 11.8412L14.9627 8.20435C14.9767 8.14983 14.9787 8.09247 14.9686 8.03692C14.9585 7.98138 14.9366 7.92924 14.9046 7.88475C14.8726 7.84025 14.8315 7.80467 14.7845 7.78089C14.7376 7.75712 14.6862 7.74583 14.6346 7.74795H9.05643C8.9694 7.74795 8.88594 7.78581 8.82441 7.8532C8.76287 7.9206 8.7283 8.01201 8.7283 8.10732C8.7283 8.20263 8.76287 8.29404 8.82441 8.36144C8.88594 8.42883 8.9694 8.4667 9.05643 8.4667H14.2014L13.4533 11.3776H8.9908L7.78002 6.57279C7.76079 6.49439 7.71789 6.42543 7.65831 6.37714C7.59873 6.32885 7.52597 6.30407 7.45189 6.30685H5.78174C5.69471 6.30685 5.61125 6.34471 5.54972 6.41211C5.48818 6.47951 5.45361 6.57091 5.45361 6.66623C5.45361 6.76154 5.48818 6.85295 5.54972 6.92034C5.61125 6.98774 5.69471 7.0256 5.78174 7.0256H7.21893L8.40018 11.7262L8.14096 12.6067C7.93039 12.5997 7.72225 12.6574 7.54007 12.7733C7.35789 12.8891 7.20895 13.0585 7.11009 13.2622C7.01123 13.466 6.96641 13.6959 6.98068 13.9261C6.99495 14.1563 7.06775 14.3776 7.19085 14.5648C7.31395 14.752 7.48244 14.8978 7.67724 14.9856C7.87205 15.0734 8.0854 15.0998 8.29317 15.0617C8.50094 15.0236 8.69483 14.9226 8.85291 14.7701C9.01099 14.6176 9.12695 14.4197 9.18768 14.1987H13.3483C13.4089 14.4165 13.5234 14.6117 13.6791 14.7625C13.8349 14.9134 14.0257 15.0141 14.2304 15.0534C14.4352 15.0927 14.6459 15.0692 14.8392 14.9854C15.0325 14.9015 15.2008 14.7607 15.3255 14.5785C15.4501 14.3963 15.5263 14.1798 15.5455 13.9531C15.5647 13.7264 15.5262 13.4983 15.4343 13.2941C15.3423 13.0899 15.2005 12.9176 15.0246 12.7962C14.8487 12.6749 14.6456 12.6093 14.4377 12.6067Z" fill="white"/>
</g>
<defs>
<clipPath id="clip0_504_529">
<rect width="21" height="23" fill="white"/>
</clipPath>
</defs>
</svg>
