<svg width="21" height="15" viewBox="0 0 21 15" fill="none" xmlns="http://www.w3.org/2000/svg">
<path fill-rule="evenodd" clip-rule="evenodd" d="M6.825 7.5C8.85544 7.5 10.5 5.82188 10.5 3.75C10.5 1.67813 8.85544 0 6.825 0C4.79456 0 3.15 1.67813 3.15 3.75C3.15 5.82188 4.79456 7.5 6.825 7.5ZM9.45 3.75C9.45 5.23012 8.27552 6.42857 6.825 6.42857C5.37448 6.42857 4.2 5.23012 4.2 3.75C4.2 2.26988 5.37448 1.07143 6.825 1.07143C8.27552 1.07143 9.45 2.26988 9.45 3.75ZM0 15V12C0 9.72 4.54713 8.57143 6.825 8.57143C8.34025 8.57143 10.8597 9.07966 12.3768 10.0911C13.4582 9.79275 14.6441 9.64286 15.4875 9.64286C16.4629 9.64286 17.7718 9.84332 18.8523 10.2486C19.3916 10.4509 19.9074 10.7164 20.2977 11.0605C20.6907 11.407 21 11.8755 21 12.4643V15H0ZM1.05 12C1.05 11.83 1.12642 11.5975 1.45224 11.2953C1.78452 10.9872 2.29594 10.6881 2.94358 10.4274C4.2399 9.90568 5.81522 9.64286 6.825 9.64286C7.83479 9.64286 9.4101 9.90568 10.7064 10.4274C11.3541 10.6881 11.8655 10.9872 12.1977 11.2953C12.5236 11.5975 12.6 11.83 12.6 12V13.9286H1.05V12ZM13.3104 10.9656C14.1045 10.7981 14.9013 10.7143 15.4875 10.7143C16.3519 10.7143 17.5368 10.8967 18.49 11.2542C18.9676 11.4334 19.3538 11.6443 19.6112 11.8713C19.8659 12.0958 19.95 12.293 19.95 12.4643V13.9286H13.65V12C13.65 11.6245 13.5267 11.2797 13.3104 10.9656ZM18.375 5.625C18.375 7.25288 17.0828 8.57143 15.4875 8.57143C13.8922 8.57143 12.6 7.25288 12.6 5.625C12.6 3.99707 13.8922 2.67857 15.4875 2.67857C17.0828 2.67857 18.375 3.99707 18.375 5.625ZM15.4875 7.5C16.503 7.5 17.325 6.66118 17.325 5.625C17.325 4.58882 16.503 3.75 15.4875 3.75C14.472 3.75 13.65 4.58882 13.65 5.625C13.65 6.66118 14.472 7.5 15.4875 7.5Z" fill="white"/>
</svg>
