<svg width="23" height="23" viewBox="0 0 23 23" fill="none" xmlns="http://www.w3.org/2000/svg">
<path d="M19.4062 4.3125H17.9688V3.59375C17.9583 3.50139 17.9328 3.40759 17.8635 3.33967L15.3478 0.824047C15.2795 0.755047 15.1861 0.729172 15.0938 0.71875H4.3125C3.13627 0.729531 2.39488 1.74297 2.51562 2.875H2.15625C2.06094 2.875 1.96953 2.91286 1.90213 2.98026C1.83474 3.04765 1.79688 3.13906 1.79688 3.23438C1.79688 3.32969 1.83474 3.4211 1.90213 3.48849C1.96953 3.55589 2.06094 3.59375 2.15625 3.59375H2.51562V5.03125H2.15625C2.06094 5.03125 1.96953 5.06911 1.90213 5.13651C1.83474 5.2039 1.79688 5.29531 1.79688 5.39062C1.79688 5.48594 1.83474 5.57735 1.90213 5.64474C1.96953 5.71214 2.06094 5.75 2.15625 5.75H2.51562V7.1875H2.15625C2.06094 7.1875 1.96953 7.22536 1.90213 7.29276C1.83474 7.36015 1.79688 7.45156 1.79688 7.54688C1.79688 7.64219 1.83474 7.7336 1.90213 7.80099C1.96953 7.86839 2.06094 7.90625 2.15625 7.90625H2.51562V9.34375H2.15625C2.06094 9.34375 1.96953 9.38161 1.90213 9.44901C1.83474 9.5164 1.79688 9.60781 1.79688 9.70312C1.79688 9.79844 1.83474 9.88985 1.90213 9.95724C1.96953 10.0246 2.06094 10.0625 2.15625 10.0625H2.51562V11.5H2.15625C2.06094 11.5 1.96953 11.5379 1.90213 11.6053C1.83474 11.6727 1.79688 11.7641 1.79688 11.8594C1.79688 11.9547 1.83474 12.0461 1.90213 12.1135C1.96953 12.1809 2.06094 12.2188 2.15625 12.2188H2.51562V13.6562H2.15625C2.06094 13.6562 1.96953 13.6941 1.90213 13.7615C1.83474 13.8289 1.79688 13.9203 1.79688 14.0156C1.79688 14.1109 1.83474 14.2023 1.90213 14.2697C1.96953 14.3371 2.06094 14.375 2.15625 14.375H2.51562V15.8125H2.15625C2.06094 15.8125 1.96953 15.8504 1.90213 15.9178C1.83474 15.9852 1.79688 16.0766 1.79688 16.1719C1.79688 16.2672 1.83474 16.3586 1.90213 16.426C1.96953 16.4934 2.06094 16.5312 2.15625 16.5312H2.51562C2.39703 17.664 3.13231 18.6756 4.3125 18.6875H5.75V19.0469H5.39062C5.29531 19.0469 5.2039 19.0847 5.13651 19.1521C5.06911 19.2195 5.03125 19.3109 5.03125 19.4062C5.03125 19.5016 5.06911 19.593 5.13651 19.6604C5.2039 19.7278 5.29531 19.7656 5.39062 19.7656H5.75V20.4844C5.75 21.4752 6.55608 22.2812 7.54688 22.2812H19.4062C20.397 22.2812 21.2031 21.4752 21.2031 20.4844V6.10938C21.2031 5.11858 20.397 4.3125 19.4062 4.3125ZM15.4531 1.94566L16.7418 3.23438H16.1719C15.7755 3.23438 15.4531 2.91202 15.4531 2.51562V1.94566ZM5.75 6.10938H5.39062C5.29531 6.10938 5.2039 6.14724 5.13651 6.21463C5.06911 6.28203 5.03125 6.37344 5.03125 6.46875C5.03125 6.56406 5.06911 6.65547 5.13651 6.72287C5.2039 6.79026 5.29531 6.82812 5.39062 6.82812H5.75V8.26562H5.39062C5.29531 8.26562 5.2039 8.30349 5.13651 8.37088C5.06911 8.43828 5.03125 8.52969 5.03125 8.625C5.03125 8.72031 5.06911 8.81172 5.13651 8.87912C5.2039 8.94651 5.29531 8.98438 5.39062 8.98438H5.75V10.4219H5.39062C5.29531 10.4219 5.2039 10.4597 5.13651 10.5271C5.06911 10.5945 5.03125 10.6859 5.03125 10.7812C5.03125 10.8766 5.06911 10.968 5.13651 11.0354C5.2039 11.1028 5.29531 11.1406 5.39062 11.1406H5.75V12.5781H5.39062C5.29531 12.5781 5.2039 12.616 5.13651 12.6834C5.06911 12.7508 5.03125 12.8422 5.03125 12.9375C5.03125 13.0328 5.06911 13.1242 5.13651 13.1916C5.2039 13.259 5.29531 13.2969 5.39062 13.2969H5.75V14.7344H5.39062C5.29531 14.7344 5.2039 14.7722 5.13651 14.8396C5.06911 14.907 5.03125 14.9984 5.03125 15.0938C5.03125 15.1891 5.06911 15.2805 5.13651 15.3479C5.2039 15.4153 5.29531 15.4531 5.39062 15.4531H5.75V16.8906H5.39062C5.29531 16.8906 5.2039 16.9285 5.13651 16.9959C5.06911 17.0633 5.03125 17.1547 5.03125 17.25C5.03125 17.3453 5.06911 17.4367 5.13651 17.5041C5.2039 17.5715 5.29531 17.6094 5.39062 17.6094H5.75V17.9688H4.3125C3.71809 17.9688 3.23438 17.485 3.23438 16.8906V16.5312H3.59375C3.68906 16.5312 3.78047 16.4934 3.84787 16.426C3.91526 16.3586 3.95312 16.2672 3.95312 16.1719C3.95312 16.0766 3.91526 15.9852 3.84787 15.9178C3.78047 15.8504 3.68906 15.8125 3.59375 15.8125H3.23438V14.375H3.59375C3.68906 14.375 3.78047 14.3371 3.84787 14.2697C3.91526 14.2023 3.95312 14.1109 3.95312 14.0156C3.95312 13.9203 3.91526 13.8289 3.84787 13.7615C3.78047 13.6941 3.68906 13.6562 3.59375 13.6562H3.23438V12.2188H3.59375C3.68906 12.2188 3.78047 12.1809 3.84787 12.1135C3.91526 12.0461 3.95312 11.9547 3.95312 11.8594C3.95312 11.7641 3.91526 11.6727 3.84787 11.6053C3.78047 11.5379 3.68906 11.5 3.59375 11.5H3.23438V10.0625H3.59375C3.68906 10.0625 3.78047 10.0246 3.84787 9.95724C3.91526 9.88985 3.95312 9.79844 3.95312 9.70312C3.95312 9.60781 3.91526 9.5164 3.84787 9.44901C3.78047 9.38161 3.68906 9.34375 3.59375 9.34375H3.23438V7.90625H3.59375C3.68906 7.90625 3.78047 7.86839 3.84787 7.80099C3.91526 7.7336 3.95312 7.64219 3.95312 7.54688C3.95312 7.45156 3.91526 7.36015 3.84787 7.29276C3.78047 7.22536 3.68906 7.1875 3.59375 7.1875H3.23438V5.75H3.59375C3.68906 5.75 3.78047 5.71214 3.84787 5.64474C3.91526 5.57735 3.95312 5.48594 3.95312 5.39062C3.95312 5.29531 3.91526 5.2039 3.84787 5.13651C3.78047 5.06911 3.68906 5.03125 3.59375 5.03125H3.23438V3.59375H3.59375C3.68906 3.59375 3.78047 3.55589 3.84787 3.48849C3.91526 3.4211 3.95312 3.32969 3.95312 3.23438C3.95312 3.13906 3.91526 3.04765 3.84787 2.98026C3.78047 2.91286 3.68906 2.875 3.59375 2.875H3.23438V2.51562C3.23438 1.92122 3.71809 1.4375 4.3125 1.4375H14.7344V2.51562C14.7344 3.30841 15.3791 3.95312 16.1719 3.95312H17.25V4.3125H7.54688C6.55608 4.3125 5.75 5.11858 5.75 6.10938ZM20.4844 20.4844C20.4844 21.0788 20.0007 21.5625 19.4062 21.5625H7.54688C6.95247 21.5625 6.46875 21.0788 6.46875 20.4844V19.7656H6.82812C6.92344 19.7656 7.01485 19.7278 7.08224 19.6604C7.14964 19.593 7.1875 19.5016 7.1875 19.4062C7.1875 19.3109 7.14964 19.2195 7.08224 19.1521C7.01485 19.0847 6.92344 19.0469 6.82812 19.0469H6.46875V17.6094H6.82812C6.92344 17.6094 7.01485 17.5715 7.08224 17.5041C7.14964 17.4367 7.1875 17.3453 7.1875 17.25C7.1875 17.1547 7.14964 17.0633 7.08224 16.9959C7.01485 16.9285 6.92344 16.8906 6.82812 16.8906H6.46875V15.4531H6.82812C6.92344 15.4531 7.01485 15.4153 7.08224 15.3479C7.14964 15.2805 7.1875 15.1891 7.1875 15.0938C7.1875 14.9984 7.14964 14.907 7.08224 14.8396C7.01485 14.7722 6.92344 14.7344 6.82812 14.7344H6.46875V13.2969H6.82812C6.92344 13.2969 7.01485 13.259 7.08224 13.1916C7.14964 13.1242 7.1875 13.0328 7.1875 12.9375C7.1875 12.8422 7.14964 12.7508 7.08224 12.6834C7.01485 12.616 6.92344 12.5781 6.82812 12.5781H6.46875V11.1406H6.82812C6.92344 11.1406 7.01485 11.1028 7.08224 11.0354C7.14964 10.968 7.1875 10.8766 7.1875 10.7812C7.1875 10.6859 7.14964 10.5945 7.08224 10.5271C7.01485 10.4597 6.92344 10.4219 6.82812 10.4219H6.46875V8.98438H6.82812C6.92344 8.98438 7.01485 8.94651 7.08224 8.87912C7.14964 8.81172 7.1875 8.72031 7.1875 8.625C7.1875 8.52969 7.14964 8.43828 7.08224 8.37088C7.01485 8.30349 6.92344 8.26562 6.82812 8.26562H6.46875V6.82812H6.82812C6.92344 6.82812 7.01485 6.79026 7.08224 6.72287C7.14964 6.65547 7.1875 6.56406 7.1875 6.46875C7.1875 6.37344 7.14964 6.28203 7.08224 6.21463C7.01485 6.14724 6.92344 6.10938 6.82812 6.10938H6.46875C6.46875 5.51497 6.95247 5.03125 7.54688 5.03125H19.4062C20.0007 5.03125 20.4844 5.51497 20.4844 6.10938V20.4844Z" fill="white"/>
<path d="M17.6094 6.82812H9.34375C8.74934 6.82812 8.26562 7.31184 8.26562 7.90625V18.6875C8.26562 19.2819 8.74934 19.7656 9.34375 19.7656H17.6094C18.2038 19.7656 18.6875 19.2819 18.6875 18.6875V7.90625C18.6875 7.31184 18.2038 6.82812 17.6094 6.82812ZM17.9688 18.6875C17.9688 18.7828 17.9309 18.8742 17.8635 18.9416C17.7961 19.009 17.7047 19.0469 17.6094 19.0469H9.34375C9.24844 19.0469 9.15703 19.009 9.08963 18.9416C9.02224 18.8742 8.98438 18.7828 8.98438 18.6875V7.90625C8.98438 7.70823 9.14538 7.54688 9.34375 7.54688H17.6094C17.8077 7.54688 17.9688 7.70823 17.9688 7.90625V18.6875Z" fill="white"/>
<path d="M17.2078 10.6203C17.1779 10.5615 17.1326 10.5121 17.0768 10.4771C17.021 10.4422 16.9567 10.4231 16.8908 10.4219H15.0939C14.6224 10.4294 14.621 11.1327 15.0939 11.1406H16.084L13.6816 13.8097L12.8658 12.7219C12.8096 12.6466 12.7261 12.5964 12.6333 12.5821C12.5405 12.5678 12.4458 12.5905 12.3695 12.6453L9.85389 14.4422C9.47403 14.7225 9.88336 15.2954 10.2715 15.0265L12.5014 13.4342L13.3689 14.5906C13.4008 14.6331 13.4416 14.6679 13.4885 14.6927C13.5354 14.7175 13.5873 14.7316 13.6403 14.734C13.6935 14.7377 13.7468 14.7289 13.7959 14.7083C13.8451 14.6878 13.8888 14.6559 13.9235 14.6154L16.5314 11.7178V12.5781C16.539 13.05 17.2423 13.0507 17.2502 12.5781C17.234 12.5001 17.293 10.6303 17.2078 10.6203ZM11.1408 8.98438H16.1721C16.6428 8.97719 16.6457 8.27353 16.1721 8.26562H11.1408C10.67 8.27281 10.6672 8.97647 11.1408 8.98438ZM16.8908 17.25H14.3752C13.9033 17.2575 13.9023 17.9608 14.3752 17.9688H16.8908C17.3627 17.9612 17.3638 17.2579 16.8908 17.25ZM16.8908 15.8125H15.4533C14.9815 15.82 14.9807 16.5233 15.4533 16.5312H16.8908C17.3627 16.5237 17.3634 15.8204 16.8908 15.8125Z" fill="white"/>
</svg>
