<svg width="22" height="25" viewBox="0 0 22 25" fill="none" xmlns="http://www.w3.org/2000/svg">
<path d="M4.84191 12.5666C4.44958 12.9083 4.18191 13.201 4.03983 13.4531C3.89775 13.7031 3.81158 13.9719 3.78408 14.2531H6.23983V13.4739H4.962C5.03625 13.3896 5.10133 13.3166 5.15633 13.2646C5.21316 13.2125 5.32316 13.1166 5.48725 12.9833C5.765 12.7562 5.95566 12.5458 6.06108 12.3541C6.16741 12.1604 6.21966 11.9635 6.21966 11.7521C6.22217 11.5625 6.17389 11.3765 6.08125 11.2187C5.99029 11.0592 5.85848 10.9352 5.70358 10.8635C5.54408 10.7844 5.3195 10.7479 5.03166 10.7479C4.75666 10.7479 4.53941 10.7875 4.3845 10.8666C4.23529 10.9402 4.10887 11.0628 4.0215 11.2187C3.93533 11.3677 3.87575 11.5791 3.84366 11.8479L4.66316 11.9271C4.68608 11.7312 4.731 11.5969 4.79791 11.5166C4.83147 11.479 4.87149 11.4495 4.91549 11.4302C4.95949 11.4108 5.00652 11.4019 5.05366 11.4041C5.1545 11.4041 5.237 11.4406 5.303 11.5166C5.33514 11.5511 5.36056 11.5928 5.37762 11.6391C5.39467 11.6854 5.40298 11.7352 5.402 11.7854C5.39634 11.8973 5.36192 12.0049 5.303 12.0948C5.23516 12.201 5.08208 12.3594 4.84191 12.5666ZM4.89233 19.2187C4.79689 19.2221 4.70408 19.1828 4.63383 19.1094C4.566 19.0364 4.5165 18.9062 4.48533 18.7156L3.66675 18.8385C3.72083 19.051 3.79691 19.226 3.89683 19.3656C3.99675 19.5041 4.12416 19.6104 4.27908 19.6844C4.43308 19.7562 4.64483 19.7916 4.91341 19.7916C5.18841 19.7916 5.40933 19.7427 5.578 19.6458C5.74148 19.553 5.87683 19.4068 5.96666 19.226C6.0565 19.0437 6.1005 18.8573 6.1005 18.6594C6.10386 18.5174 6.07614 18.3767 6.01983 18.25C5.96568 18.1385 5.88705 18.0448 5.79158 17.9781C5.7098 17.9251 5.6214 17.8864 5.52941 17.8635C5.65569 17.7907 5.76429 17.6838 5.84566 17.5521C5.91492 17.434 5.95103 17.2949 5.94925 17.1531C5.95094 17.0341 5.92861 16.9163 5.88395 16.8087C5.8393 16.701 5.77351 16.6065 5.69166 16.5323C5.52025 16.3666 5.2425 16.2844 4.85841 16.2844C4.52383 16.2844 4.26441 16.3594 4.082 16.5125C3.89866 16.6614 3.77583 16.8802 3.71166 17.1646L4.48533 17.3219C4.50641 17.1531 4.54675 17.0364 4.60725 16.9698C4.66775 16.9031 4.74566 16.8677 4.84283 16.8677C4.88324 16.8656 4.92361 16.8727 4.96156 16.8886C4.9995 16.9045 5.03425 16.9289 5.06375 16.9604C5.11783 17.0229 5.1435 17.1052 5.1435 17.2083C5.1435 17.3166 5.10866 17.4094 5.03625 17.4896C4.96383 17.5698 4.874 17.6062 4.76766 17.6062C4.73204 17.605 4.69652 17.6012 4.66133 17.5948L4.62008 18.2708C4.70577 18.2383 4.79483 18.2187 4.885 18.2125C5.006 18.2125 5.10225 18.2552 5.17191 18.3437C5.2425 18.4291 5.27733 18.551 5.27733 18.7104C5.27733 18.8625 5.24066 18.9875 5.16825 19.0791C5.13385 19.1237 5.09137 19.1592 5.04375 19.1833C4.99612 19.2074 4.94446 19.2195 4.89233 19.2187ZM5.76133 8.7156V5.20831H5.08391C5.0011 5.41846 4.87765 5.60467 4.72275 5.7531C4.56875 5.90102 4.35241 6.02602 4.07375 6.13331V6.91873C4.38711 6.8205 4.67943 6.65034 4.93266 6.41873V8.71665H5.76133V8.7156ZM8.25008 6.24998H18.3334V8.33331H8.25008V6.24998ZM8.25008 11.4583H18.3334V13.5416H8.25008V11.4583ZM8.25008 16.6666H18.3334V18.75H8.25008V16.6666Z" fill="black"/>
</svg>
