<svg width="60" height="60" viewBox="0 0 60 60" fill="none" xmlns="http://www.w3.org/2000/svg">
<g clip-path="url(#clip0_886_527)">
<path d="M50.563 58H59C59 51.771 59 49.764 55.887 47.88C50.005 44.32 44.989 44.7659 41.873 41.6519C40.84 40.6179 40.65 39.5289 40.783 38.5949C42.23 37.2849 43.517 35.5129 44.573 33.5559C45.947 32.8299 47.507 30.8959 48.038 28.5309C48.262 27.5409 47.874 26.5949 47.301 25.8699C47.342 25.6409 47.379 25.4129 47.413 25.1889C47.999 21.1679 47.842 15.1819 43.432 15.1819C42.264 11.0149 37.501 11.1759 33.803 12.0709" stroke="black" stroke-width="2" stroke-miterlimit="10"/>
<path d="M44.596 48.88C38.714 45.32 33.698 45.766 30.582 42.652C29.548 41.618 29.359 40.529 29.492 39.595C30.939 38.285 32.226 36.513 33.282 34.556C34.656 33.83 36.216 31.896 36.747 29.531C36.971 28.541 36.583 27.595 36.01 26.87C36.051 26.641 36.089 26.413 36.122 26.189C36.708 22.168 36.551 16.182 32.141 16.182C30.325 9.69496 19.793 13.698 18.127 14.625C15.498 16.087 14.76 15.817 13.456 19.296C12.677 21.372 12.646 23.17 12.618 26.031C12.616 26.312 12.633 26.61 12.663 26.918C12.11 27.636 11.745 28.561 11.962 29.53C12.489 31.879 14.032 33.805 15.4 34.539C16.264 36.033 17.288 37.452 18.409 38.639C18.509 39.744 18.395 41.305 17.347 42.651C14.722 46.024 6.903 46.535 4.113 48.88C2.346 50.365 1.26 51.215 1 59H47.709C47.709 52.771 47.709 50.764 44.596 48.88Z" stroke="black" stroke-width="2" stroke-miterlimit="10"/>
</g>
<defs>
<clipPath id="clip0_886_527">
<rect width="60" height="60" fill="white"/>
</clipPath>
</defs>
</svg>
