<svg width="34" height="24" viewBox="0 0 34 24" fill="none" xmlns="http://www.w3.org/2000/svg">
<g clip-path="url(#clip0_873_527)">
<path d="M17 3.17617e-05C13.3324 -0.00681295 9.74794 1.09278 6.71507 3.15513C3.68219 5.21748 1.34191 8.14669 0 11.56C1.33571 14.9691 3.66806 17.8963 6.69265 19.9597C9.71725 22.0231 13.2936 23.1268 16.955 23.1268C20.6164 23.1268 24.1928 22.0231 27.2173 19.9597C30.2419 17.8963 32.5743 14.9691 33.91 11.56C32.5749 8.16017 30.2487 5.24009 27.2333 3.17872C24.2179 1.11736 20.6526 0.00989043 17 3.17617e-05ZM17 20C14.1632 20.0172 11.3797 19.2297 8.97248 17.7287C6.56526 16.2277 4.63303 14.0749 3.4 11.52C4.6464 8.97692 6.58112 6.8344 8.98433 5.3359C11.3875 3.83741 14.1629 3.04303 16.995 3.04303C19.8271 3.04303 22.6025 3.83741 25.0057 5.3359C27.4089 6.8344 29.3436 8.97692 30.59 11.52C29.3577 14.0733 27.427 16.2251 25.0217 17.726C22.6165 19.2269 19.8351 20.0153 17 20Z" fill="black"/>
<path d="M16.96 18.5001C20.7929 18.5001 23.9 15.393 23.9 11.5601C23.9 7.72726 20.7929 4.62012 16.96 4.62012C13.1272 4.62012 10.02 7.72726 10.02 11.5601C10.02 15.393 13.1272 18.5001 16.96 18.5001Z" fill="black"/>
</g>
<defs>
<clipPath id="clip0_873_527">
<rect width="33.91" height="23.12" fill="white"/>
</clipPath>
</defs>
</svg>
