<svg width="83" height="75" viewBox="0 0 83 75" fill="none" xmlns="http://www.w3.org/2000/svg">
<path d="M81.0129 31.92C79.7821 30.6961 78.1186 30.0063 76.3829 30C74.6429 30 73.0029 30.68 71.7529 31.92L69.0129 34.66V4.53C69.0129 2.03 66.9829 0 64.4829 0H24.5329C22.0329 0 20.0029 2.03 20.0029 4.53V36.48C20.0029 37.29 20.2329 38.04 20.6029 38.7C18.2029 39.47 15.9929 40.8 14.1629 42.63L9.90286 46.89C8.47286 46.08 6.54286 46.25 5.35286 47.44L0.442861 52.35C0.302571 52.4886 0.191187 52.6536 0.115166 52.8356C0.0391449 53.0176 0 53.2128 0 53.41C0 53.6072 0.0391449 53.8024 0.115166 53.9844C0.191187 54.1664 0.302571 54.3314 0.442861 54.47C1.03286 55.06 1.98286 55.06 2.56286 54.47L7.47286 49.56C7.54209 49.4897 7.62459 49.4339 7.71558 49.3958C7.80657 49.3578 7.90422 49.3381 8.00286 49.3381C8.1015 49.3381 8.19915 49.3578 8.29014 49.3958C8.38113 49.4339 8.46364 49.4897 8.53286 49.56L25.3529 66.38C25.6429 66.67 25.6429 67.15 25.3529 67.44L20.4429 72.35C20.3026 72.4886 20.1912 72.6536 20.1152 72.8356C20.0391 73.0176 20 73.2128 20 73.41C20 73.6072 20.0391 73.8024 20.1152 73.9844C20.1912 74.1664 20.3026 74.3314 20.4429 74.47C20.7329 74.76 21.1229 74.91 21.5029 74.91C21.8829 74.91 22.2729 74.76 22.5629 74.47L27.4729 69.56C28.7129 68.32 28.8829 66.44 28.0329 65L29.1729 63.86C29.7929 63.24 30.6029 62.91 31.4729 62.91H53.5429C57.7329 62.91 61.8029 61.18 64.7029 58.15L81.0829 41.09C83.5529 38.55 83.5129 34.43 81.0129 31.92ZM58.0329 41H62.6729L59.0029 44.67C59.0029 44.58 59.0129 44.5 59.0129 44.41C59.0129 43.16 58.6429 42 58.0329 41ZM48.0129 3V12.38L45.4529 10.33C45.1829 10.11 44.8429 10 44.5129 10C44.1829 10 43.8529 10.11 43.5729 10.33L41.0129 12.38V3H48.0129ZM23.0129 36.48V4.53C23.0129 3.69 23.6929 3 24.5429 3H38.0129V15.5C38.0129 16.08 38.3429 16.6 38.8629 16.85C39.3829 17.1 40.0029 17.03 40.4529 16.67L44.5129 13.42L48.5729 16.67C48.8429 16.89 49.1729 17 49.5129 17C49.9102 16.9984 50.2908 16.8399 50.5718 16.5589C50.8527 16.278 51.0113 15.8973 51.0129 15.5V3H64.4829C65.3229 3 66.0129 3.68 66.0129 4.53V36.48C66.0129 37.32 65.3329 38.01 64.4829 38.01H53.5429C53.2022 37.9546 52.8579 37.9246 52.5129 37.92H25.5529C25.1229 37.92 24.6929 37.95 24.2629 37.98C23.5529 37.85 23.0129 37.23 23.0129 36.48ZM78.9329 39.02L62.5529 56.08C61.387 57.2911 59.9894 58.2551 58.4432 58.9148C56.897 59.5746 55.2339 59.9164 53.5529 59.92H31.4829C29.8129 59.92 28.2429 60.57 27.0529 61.75L26.0029 62.8L12.1329 48.91L16.2929 44.75C18.4629 42.58 21.2529 41.27 24.2629 40.98C24.3529 40.99 24.4429 41.01 24.5329 41.01H53.2729C54.8329 41.36 56.0129 42.75 56.0129 44.42C56.0129 46.27 54.5729 47.77 52.7529 47.9C52.5929 47.91 52.4229 47.92 52.2629 47.92H37.5129C36.6829 47.92 36.0129 48.59 36.0129 49.42C36.0129 50.25 36.6829 50.92 37.5129 50.92H52.5129C52.7729 50.92 53.0329 50.9 53.2829 50.87C55.9529 50.63 58.4429 49.48 60.3629 47.56L73.8629 34.05C74.5429 33.38 75.4329 33 76.3829 33C77.3129 33 78.2329 33.38 78.8929 34.04C80.2429 35.4 80.2729 37.63 78.9329 39.02ZM28.0129 31.5C28.0129 30.67 28.6829 30 29.5129 30H33.5129C34.3429 30 35.0129 30.67 35.0129 31.5C35.0129 32.33 34.3429 33 33.5129 33H29.5129C28.6829 33 28.0129 32.33 28.0129 31.5ZM28.0129 25.5C28.0129 24.67 28.6829 24 29.5129 24H37.5129C38.3429 24 39.0129 24.67 39.0129 25.5C39.0129 26.33 38.3429 27 37.5129 27H29.5129C28.6829 27 28.0129 26.33 28.0129 25.5Z" fill="black"/>
</svg>
